<svg xmlns="http://www.w3.org/2000/svg" width="100" height="65.798" viewBox="0 0 100 65.798">
  <path id="Icon_material-devices-other" data-name="Icon material-devices-other" d="M10.591,14.225H92.409V6H10.591C5.591,6,1.5,9.7,1.5,14.225V63.573C1.5,68.1,5.591,71.8,10.591,71.8H28.773V63.573H10.591ZM56.045,38.9H37.864v7.32a11.441,11.441,0,0,0,0,18.259V71.8H56.045v-7.32a11.441,11.441,0,0,0,0-18.259ZM46.955,61.517c-3.773,0-6.818-2.755-6.818-6.169s3.045-6.169,6.818-6.169,6.818,2.755,6.818,6.169S50.727,61.517,46.955,61.517Zm50-39.068H69.682c-2.273,0-4.545,2.056-4.545,4.112V67.686c0,2.056,2.273,4.112,4.545,4.112H96.955c2.273,0,4.545-2.056,4.545-4.112V26.562C101.5,24.506,99.227,22.45,96.955,22.45ZM92.409,63.573H74.227v-32.9H92.409Z" transform="translate(-1.5 -6)" fill="#081b29"/>
</svg>
