<svg xmlns="http://www.w3.org/2000/svg" width="86" height="91" viewBox="0 0 86 91">
  <path id="android" data-name="Icon material-android" d="M20.2,68.25a4.082,4.082,0,0,0,4.3,3.792h4.3V85.313C28.8,88.46,31.681,91,35.25,91s6.45-2.54,6.45-5.687V72.042h8.6V85.313C50.3,88.46,53.181,91,56.75,91s6.45-2.54,6.45-5.687V72.042h4.3a4.082,4.082,0,0,0,4.3-3.792V30.333H20.2ZM9.45,30.333c-3.569,0-6.45,2.54-6.45,5.687V62.562C3,65.71,5.881,68.25,9.45,68.25s6.45-2.54,6.45-5.688V36.021C15.9,32.874,13.019,30.333,9.45,30.333Zm73.1,0c-3.569,0-6.45,2.54-6.45,5.687V62.562c0,3.147,2.881,5.688,6.45,5.688S89,65.71,89,62.562V36.021C89,32.874,86.119,30.333,82.55,30.333ZM61.179,8.19l5.59-4.929a1.727,1.727,0,0,0,0-2.692,2.333,2.333,0,0,0-3.053,0L57.352,6.18A27.881,27.881,0,0,0,46,3.792,28.292,28.292,0,0,0,34.562,6.18L28.155.569a2.333,2.333,0,0,0-3.053,0,1.727,1.727,0,0,0,0,2.692l5.633,4.967C24.371,12.361,20.2,19,20.2,26.542H71.8C71.8,19,67.629,12.323,61.179,8.19ZM37.4,18.958H33.1V15.167h4.3Zm21.5,0H54.6V15.167h4.3Z" transform="translate(-3)" fill="#081b29"/>
</svg>
