<svg xmlns="http://www.w3.org/2000/svg" width="56.992" height="82" viewBox="0 0 56.992 82">
  <path id="figma" data-name="Icon awesome-figma" d="M44.215,27.339c7.868,0,14.246-6.12,14.246-13.669S52.083,0,44.215,0H15.724C7.861,0,1.486,6.116,1.486,13.661S7.861,27.323,15.724,27.323c-7.868,0-14.246,6.12-14.246,13.669S7.856,54.661,15.724,54.661c-7.868,0-14.25,6.112-14.254,13.661S7.839,82,15.707,82s14.25-6.112,14.254-13.661v-41Zm0,0c-7.863,0-14.238,6.116-14.238,13.661s6.374,13.661,14.238,13.661S58.453,48.545,58.453,41,52.08,27.34,44.217,27.339Z" transform="translate(-1.47)" fill="#112e42"/>
</svg>
