<svg xmlns="http://www.w3.org/2000/svg" width="87.5" height="75" viewBox="0 0 87.5 75">
  <path id="laptop" data-name="Icon awesome-laptop" d="M85.313,60.937H52.164c-.1,2.9-2.011,4.688-4.476,4.688H39.375a4.817,4.817,0,0,1-4.48-4.688H2.188A2.276,2.276,0,0,0,0,63.281v2.344C0,70.781,3.938,75,8.75,75h70c4.812,0,8.75-4.219,8.75-9.375V63.281A2.276,2.276,0,0,0,85.313,60.937ZM78.75,7.031A6.829,6.829,0,0,0,72.188,0H15.313A6.829,6.829,0,0,0,8.75,7.031V56.25h70ZM70,46.875H17.5V9.375H70Z" fill="#081b29"/>
</svg>
